<?xml version="1.0" encoding="UTF-8" standalone="no"?>
<!DOCTYPE svg PUBLIC "-//W3C//DTD SVG 1.1//EN" "http://www.w3.org/Graphics/SVG/1.1/DTD/svg11.dtd">
<svg width="100%" height="100%" viewBox="0 0 4161 448" version="1.1" xmlns="http://www.w3.org/2000/svg" xmlns:xlink="http://www.w3.org/1999/xlink" xml:space="preserve" xmlns:serif="http://www.serif.com/" style="fill-rule:evenodd;clip-rule:evenodd;stroke-linejoin:round;stroke-miterlimit:2;">
    <g transform="matrix(1,0,0,1,-6760,-36811.9)">
        <g id="Artboard5" transform="matrix(1.00873,0,0,0.190476,-3954.7,31754.9)">
            <rect x="10622" y="26549" width="4125" height="2352" style="fill:none;"/>
            <g transform="matrix(1.04924,0,0,5.5566,3590.34,-178146)">
                <g transform="matrix(250,0,0,250,7473.45,37143)">
                </g>
                <text x="6770.32px" y="37143px" style="font-family:'RedditMono-Bold', 'Reddit Mono', monospace;font-weight:700;font-size:250px;fill:none;stroke:rgb(148,19,63);stroke-width:31.49px;">DISCO</text>
            </g>
            <g transform="matrix(1.04924,0,0,5.5566,3590.34,-178146)">
                <g transform="matrix(250,0,0,250,7473.45,37143)">
                </g>
                <text x="6770.32px" y="37143px" style="font-family:'RedditMono-Bold', 'Reddit Mono', monospace;font-weight:700;font-size:250px;fill:none;stroke:rgb(255,170,255);stroke-width:13.78px;">DISCO</text>
            </g>
            <g transform="matrix(1.04924,0,0,5.5566,3590.34,-178146)">
                <g transform="matrix(250,0,0,250,7473.45,37143)">
                </g>
                <text x="6770.32px" y="37143px" style="font-family:'RedditMono-Bold', 'Reddit Mono', monospace;font-weight:700;font-size:250px;fill:rgb(207,80,160);">DISCO</text>
            </g>
            <g transform="matrix(0.991348,0,0,5.25,4817.66,-166992)">
                <text x="6770.32px" y="37143px" style="font-family:'RedditMono-Bold', 'Reddit Mono', monospace;font-weight:700;font-size:133.333px;fill:rgb(24,26,30);">Diffusion for Sequence-Structure Co-design</text>
            </g>
        </g>
    </g>
</svg>
